REM DIRINDEX 1\2,1\3,1\4
REM DIRNAME cjc090,folder01,folder02,folder03
TITLE ""
FILE "Track5.mp3" MP3
  TRACK 01 AUDIO
    TITLE "0:"
    INDEX 01 00:00:00
  TRACK 02 AUDIO
    TITLE "4:cjc090_1616"
    INDEX 01 00:00:25
  TRACK 03 AUDIO
    TITLE "0:"
    INDEX 01 00:06:22
  TRACK 04 AUDIO
    TITLE "3:cjc090_1617"
    INDEX 01 00:07:19
  TRACK 05 AUDIO
    TITLE "2:cjc090_1618"
    INDEX 01 00:08:54
  TRACK 06 AUDIO
    TITLE "0:"
    INDEX 01 00:10:33
  TRACK 07 AUDIO
    TITLE "3:cjc090_1619"
    INDEX 01 00:10:51
  TRACK 08 AUDIO
    TITLE "2:cjc090_1620"
    INDEX 01 00:12:05
  TRACK 09 AUDIO
    TITLE "0:"
    INDEX 01 00:13:22
  TRACK 10 AUDIO
    TITLE "3:cjc090_1621"
    INDEX 01 00:13:41
  TRACK 11 AUDIO
    TITLE "2:cjc090_1622"
    INDEX 01 00:14:66
  TRACK 12 AUDIO
    TITLE "0:"
    INDEX 01 00:16:51
  TRACK 13 AUDIO
    TITLE "3:cjc090_1623"
    INDEX 01 00:16:69
  TRACK 14 AUDIO
    TITLE "2:cjc090_1624"
    INDEX 01 00:18:03
  TRACK 15 AUDIO
    TITLE "0:"
    INDEX 01 00:19:58
  TRACK 16 AUDIO
    TITLE "3:cjc090_1625"
    INDEX 01 00:20:02
  TRACK 17 AUDIO
    TITLE "2:cjc090_1626"
    INDEX 01 00:21:21
  TRACK 18 AUDIO
    TITLE "0:"
    INDEX 01 00:23:32
  TRACK 19 AUDIO
    TITLE "3:cjc090_1627"
    INDEX 01 00:23:50
  TRACK 20 AUDIO
    TITLE "2:cjc090_1628"
    INDEX 01 00:24:69
  TRACK 21 AUDIO
    TITLE "0:"
    INDEX 01 00:27:08
  TRACK 22 AUDIO
    TITLE "3:cjc090_1629"
    INDEX 01 00:27:26
  TRACK 23 AUDIO
    TITLE "2:cjc090_1630"
    INDEX 01 00:28:37
  TRACK 24 AUDIO
    TITLE "0:"
    INDEX 01 00:30:28
  TRACK 25 AUDIO
    TITLE "3:cjc090_1631"
    INDEX 01 00:30:46
  TRACK 26 AUDIO
    TITLE "2:cjc090_1632"
    INDEX 01 00:31:43
  TRACK 27 AUDIO
    TITLE "0:"
    INDEX 01 00:32:58
  TRACK 28 AUDIO
    TITLE "3:cjc090_1633"
    INDEX 01 00:33:01
  TRACK 29 AUDIO
    TITLE "2:cjc090_1634"
    INDEX 01 00:34:12
  TRACK 30 AUDIO
    TITLE "0:"
    INDEX 01 00:35:66
  TRACK 31 AUDIO
    TITLE "3:cjc090_1635"
    INDEX 01 00:36:11
  TRACK 32 AUDIO
    TITLE "2:cjc090_1636"
    INDEX 01 00:37:32
  TRACK 33 AUDIO
    TITLE "0:"
    INDEX 01 00:39:23
  TRACK 34 AUDIO
    TITLE "3:cjc090_1637"
    INDEX 01 00:39:43
  TRACK 35 AUDIO
    TITLE "2:cjc090_1638"
    INDEX 01 00:40:48
  TRACK 36 AUDIO
    TITLE "0:"
    INDEX 01 00:42:41
  TRACK 37 AUDIO
    TITLE "3:cjc090_1639"
    INDEX 01 00:42:59
  TRACK 38 AUDIO
    TITLE "2:cjc090_1640"
    INDEX 01 00:43:64
  TRACK 39 AUDIO
    TITLE "0:"
    INDEX 01 00:45:41
  TRACK 40 AUDIO
    TITLE "3:cjc090_1641"
    INDEX 01 00:45:59
  TRACK 41 AUDIO
    TITLE "2:cjc090_1642"
    INDEX 01 00:46:54
  TRACK 42 AUDIO
    TITLE "0:"
    INDEX 01 00:48:63
  TRACK 43 AUDIO
    TITLE "3:cjc090_1643"
    INDEX 01 00:49:08
  TRACK 44 AUDIO
    TITLE "2:cjc090_1644"
    INDEX 01 00:50:03
  TRACK 45 AUDIO
    TITLE "0:"
    INDEX 01 00:51:69
  TRACK 46 AUDIO
    TITLE "3:cjc090_1645"
    INDEX 01 00:52:14
  TRACK 47 AUDIO
    TITLE "2:cjc090_1646"
    INDEX 01 00:53:21
  TRACK 48 AUDIO
    TITLE "0:"
    INDEX 01 00:54:23
  TRACK 49 AUDIO
    TITLE "3:cjc090_1647"
    INDEX 01 00:54:42
  TRACK 50 AUDIO
    TITLE "2:cjc090_1648"
    INDEX 01 00:55:57
  TRACK 51 AUDIO
    TITLE "0:"
    INDEX 01 00:57:25
  TRACK 52 AUDIO
    TITLE "3:cjc090_1649"
    INDEX 01 00:57:46
  TRACK 53 AUDIO
    TITLE "2:cjc090_1650"
    INDEX 01 00:58:54
  TRACK 54 AUDIO
    TITLE "0:"
    INDEX 01 01:00:04
  TRACK 55 AUDIO
    TITLE "3:cjc090_1651"
    INDEX 01 01:00:21
  TRACK 56 AUDIO
    TITLE "2:cjc090_1652"
    INDEX 01 01:01:21
  TRACK 57 AUDIO
    TITLE "0:"
    INDEX 01 01:03:14
  TRACK 58 AUDIO
    TITLE "3:cjc090_1653"
    INDEX 01 01:03:29
  TRACK 59 AUDIO
    TITLE "2:cjc090_1654"
    INDEX 01 01:04:41
  TRACK 60 AUDIO
    TITLE "0:"
    INDEX 01 01:05:62
  TRACK 61 AUDIO
    TITLE "3:cjc090_1655"
    INDEX 01 01:06:04
  TRACK 62 AUDIO
    TITLE "2:cjc090_1656"
    INDEX 01 01:07:25
  TRACK 63 AUDIO
    TITLE "0:"
    INDEX 01 01:08:35
  TRACK 64 AUDIO
    TITLE "3:cjc090_1657"
    INDEX 01 01:08:52
  TRACK 65 AUDIO
    TITLE "2:cjc090_1658"
    INDEX 01 01:09:59
  TRACK 66 AUDIO
    TITLE "0:"
    INDEX 01 01:10:55
  TRACK 67 AUDIO
    TITLE "3:cjc090_1659"
    INDEX 01 01:11:02
  TRACK 68 AUDIO
    TITLE "2:cjc090_1660"
    INDEX 01 01:12:15
  TRACK 69 AUDIO
    TITLE "0:"
    INDEX 01 01:15:64
  TRACK 70 AUDIO
    TITLE "3:cjc090_1661"
    INDEX 01 01:16:07
  TRACK 71 AUDIO
    TITLE "2:cjc090_1662"
    INDEX 01 01:17:55
  TRACK 72 AUDIO
    TITLE "0:"
    INDEX 01 01:19:32
  TRACK 73 AUDIO
    TITLE "3:cjc090_1663"
    INDEX 01 01:19:52
  TRACK 74 AUDIO
    TITLE "2:cjc090_1664"
    INDEX 01 01:20:61
  TRACK 75 AUDIO
    TITLE "0:"
    INDEX 01 01:21:69
  TRACK 76 AUDIO
    TITLE "3:cjc090_1665"
    INDEX 01 01:22:13
  TRACK 77 AUDIO
    TITLE "2:cjc090_1666"
    INDEX 01 01:23:38
  TRACK 78 AUDIO
    TITLE "0:"
    INDEX 01 01:24:55
  TRACK 79 AUDIO
    TITLE "3:cjc090_1667"
    INDEX 01 01:24:73
  TRACK 80 AUDIO
    TITLE "2:cjc090_1668"
    INDEX 01 01:26:11
  TRACK 81 AUDIO
    TITLE "0:"
    INDEX 01 01:27:34
  TRACK 82 AUDIO
    TITLE "3:cjc090_1669"
    INDEX 01 01:27:51
  TRACK 83 AUDIO
    TITLE "2:cjc090_1670"
    INDEX 01 01:28:63
  TRACK 84 AUDIO
    TITLE "0:"
    INDEX 01 01:30:28
  TRACK 85 AUDIO
    TITLE "3:cjc090_1671"
    INDEX 01 01:30:48
  TRACK 86 AUDIO
    TITLE "2:cjc090_1672"
    INDEX 01 01:31:59
  TRACK 87 AUDIO
    TITLE "0:"
    INDEX 01 01:33:25
  TRACK 88 AUDIO
    TITLE "3:cjc090_1673"
    INDEX 01 01:33:44
  TRACK 89 AUDIO
    TITLE "2:cjc090_1674"
    INDEX 01 01:34:42
  TRACK 90 AUDIO
    TITLE "0:"
    INDEX 01 01:35:59
  TRACK 91 AUDIO
    TITLE "3:cjc090_1675"
    INDEX 01 01:36:01
  TRACK 92 AUDIO
    TITLE "2:cjc090_1676"
    INDEX 01 01:37:42
  TRACK 93 AUDIO
    TITLE "0:"
    INDEX 01 01:41:56
  TRACK 94 AUDIO
    TITLE "3:cjc090_1677"
    INDEX 01 01:41:73
  TRACK 95 AUDIO
    TITLE "2:cjc090_1678"
    INDEX 01 01:42:65
  TRACK 96 AUDIO
    TITLE "0:"
    INDEX 01 01:44:07
  TRACK 97 AUDIO
    TITLE "3:cjc090_1679"
    INDEX 01 01:44:24
  TRACK 98 AUDIO
    TITLE "2:cjc090_1680"
    INDEX 01 01:45:47
  TRACK 99 AUDIO
    TITLE "0:"
    INDEX 01 01:47:31
  TRACK 100 AUDIO
    TITLE "3:cjc090_1681"
    INDEX 01 01:47:48
  TRACK 101 AUDIO
    TITLE "2:cjc090_1682"
    INDEX 01 01:48:60
  TRACK 102 AUDIO
    TITLE "0:"
    INDEX 01 01:50:11
  TRACK 103 AUDIO
    TITLE "3:cjc090_1683"
    INDEX 01 01:50:29
  TRACK 104 AUDIO
    TITLE "2:cjc090_1684"
    INDEX 01 01:51:38
  TRACK 105 AUDIO
    TITLE "0:"
    INDEX 01 01:52:71
  TRACK 106 AUDIO
    TITLE "3:cjc090_1685"
    INDEX 01 01:53:14
  TRACK 107 AUDIO
    TITLE "2:cjc090_1686"
    INDEX 01 01:54:15
  TRACK 108 AUDIO
    TITLE "0:"
    INDEX 01 01:55:26
  TRACK 109 AUDIO
    TITLE "3:cjc090_1687"
    INDEX 01 01:55:44
  TRACK 110 AUDIO
    TITLE "2:cjc090_1688"
    INDEX 01 01:56:39
  TRACK 111 AUDIO
    TITLE "0:"
    INDEX 01 01:59:67
  TRACK 112 AUDIO
    TITLE "3:cjc090_1689"
    INDEX 01 02:00:10
  TRACK 113 AUDIO
    TITLE "2:cjc090_1690"
    INDEX 01 02:01:15
  TRACK 114 AUDIO
    TITLE "0:"
    INDEX 01 02:02:58
  TRACK 115 AUDIO
    TITLE "3:cjc090_1691"
    INDEX 01 02:03:02
  TRACK 116 AUDIO
    TITLE "2:cjc090_1692"
    INDEX 01 02:04:17
  TRACK 117 AUDIO
    TITLE "0:"
    INDEX 01 02:05:19
  TRACK 118 AUDIO
    TITLE "3:cjc090_1693"
    INDEX 01 02:05:36
  TRACK 119 AUDIO
    TITLE "2:cjc090_1694"
    INDEX 01 02:06:69
  TRACK 120 AUDIO
    TITLE "0:"
    INDEX 01 02:08:00
  TRACK 121 AUDIO
    TITLE "3:cjc090_1695"
    INDEX 01 02:08:19
  TRACK 122 AUDIO
    TITLE "2:cjc090_1696"
    INDEX 01 02:09:32
  TRACK 123 AUDIO
    TITLE "0:"
    INDEX 01 02:10:55
  TRACK 124 AUDIO
    TITLE "3:cjc090_1697"
    INDEX 01 02:10:73
  TRACK 125 AUDIO
    TITLE "2:cjc090_1698"
    INDEX 01 02:12:23
  TRACK 126 AUDIO
    TITLE "0:"
    INDEX 01 02:13:32
  TRACK 127 AUDIO
    TITLE "3:cjc090_1699"
    INDEX 01 02:13:50
  TRACK 128 AUDIO
    TITLE "2:cjc090_1700"
    INDEX 01 02:14:63
  TRACK 129 AUDIO
    TITLE "0:"
    INDEX 01 02:16:36
  TRACK 130 AUDIO
    TITLE "3:cjc090_1701"
    INDEX 01 02:16:54
  TRACK 131 AUDIO
    TITLE "2:cjc090_1702"
    INDEX 01 02:17:57
  TRACK 132 AUDIO
    TITLE "0:"
    INDEX 01 02:19:29
  TRACK 133 AUDIO
    TITLE "3:cjc090_1703"
    INDEX 01 02:19:46
  TRACK 134 AUDIO
    TITLE "2:cjc090_1704"
    INDEX 01 02:20:50
  TRACK 135 AUDIO
    TITLE "0:"
    INDEX 01 02:21:51
  TRACK 136 AUDIO
    TITLE "3:cjc090_1705"
    INDEX 01 02:21:69
  TRACK 137 AUDIO
    TITLE "2:cjc090_1706"
    INDEX 01 02:23:28
  TRACK 138 AUDIO
    TITLE "0:"
    INDEX 01 02:25:18
  TRACK 139 AUDIO
    TITLE "3:cjc090_1707"
    INDEX 01 02:25:35
  TRACK 140 AUDIO
    TITLE "2:cjc090_1708"
    INDEX 01 02:26:44
  TRACK 141 AUDIO
    TITLE "0:"
    INDEX 01 02:28:10
  TRACK 142 AUDIO
    TITLE "3:cjc090_1709"
    INDEX 01 02:28:30
  TRACK 143 AUDIO
    TITLE "2:cjc090_1710"
    INDEX 01 02:30:05
  TRACK 144 AUDIO
    TITLE "0:"
    INDEX 01 02:32:35
  TRACK 145 AUDIO
    TITLE "3:cjc090_1711"
    INDEX 01 02:32:53
  TRACK 146 AUDIO
    TITLE "2:cjc090_1712"
    INDEX 01 02:33:56
  TRACK 147 AUDIO
    TITLE "0:"
    INDEX 01 02:36:62
  TRACK 148 AUDIO
    TITLE "3:cjc090_1713"
    INDEX 01 02:37:05
  TRACK 149 AUDIO
    TITLE "2:cjc090_1714"
    INDEX 01 02:38:16
  TRACK 150 AUDIO
    TITLE "0:"
    INDEX 01 02:39:65
  TRACK 151 AUDIO
    TITLE "3:cjc090_1715"
    INDEX 01 02:40:07
  TRACK 152 AUDIO
    TITLE "2:cjc090_1716"
    INDEX 01 02:41:17
  TRACK 153 AUDIO
    TITLE "0:"
    INDEX 01 02:42:45
  TRACK 154 AUDIO
    TITLE "3:cjc090_1717"
    INDEX 01 02:42:63
  TRACK 155 AUDIO
    TITLE "2:cjc090_1718"
    INDEX 01 02:44:01
  TRACK 156 AUDIO
    TITLE "0:"
    INDEX 01 02:45:28
  TRACK 157 AUDIO
    TITLE "3:cjc090_1719"
    INDEX 01 02:45:48
  TRACK 158 AUDIO
    TITLE "2:cjc090_1720"
    INDEX 01 02:46:71
  TRACK 159 AUDIO
    TITLE "0:"
    INDEX 01 02:48:52
  TRACK 160 AUDIO
    TITLE "3:cjc090_1721"
    INDEX 01 02:48:73
  TRACK 161 AUDIO
    TITLE "2:cjc090_1722"
    INDEX 01 02:50:02
  TRACK 162 AUDIO
    TITLE "0:"
    INDEX 01 02:51:17
  TRACK 163 AUDIO
    TITLE "3:cjc090_1723"
    INDEX 01 02:51:35
  TRACK 164 AUDIO
    TITLE "2:cjc090_1724"
    INDEX 01 02:52:58
  TRACK 165 AUDIO
    TITLE "0:"
    INDEX 01 02:54:07
  TRACK 166 AUDIO
    TITLE "3:cjc090_1725"
    INDEX 01 02:54:25
  TRACK 167 AUDIO
    TITLE "2:cjc090_1726"
    INDEX 01 02:55:32
  TRACK 168 AUDIO
    TITLE "0:"
    INDEX 01 02:56:53
  TRACK 169 AUDIO
    TITLE "3:cjc090_1727"
    INDEX 01 02:56:71
  TRACK 170 AUDIO
    TITLE "2:cjc090_1728"
    INDEX 01 02:58:15
  TRACK 171 AUDIO
    TITLE "0:"
    INDEX 01 02:59:20
  TRACK 172 AUDIO
    TITLE "3:cjc090_1729"
    INDEX 01 02:59:38
  TRACK 173 AUDIO
    TITLE "2:cjc090_1730"
    INDEX 01 03:00:41
  TRACK 174 AUDIO
    TITLE "0:"
    INDEX 01 03:01:53
  TRACK 175 AUDIO
    TITLE "3:cjc090_1731"
    INDEX 01 03:01:72
  TRACK 176 AUDIO
    TITLE "2:cjc090_1732"
    INDEX 01 03:02:70
  TRACK 177 AUDIO
    TITLE "0:"
    INDEX 01 03:05:11
  TRACK 178 AUDIO
    TITLE "3:cjc090_1733"
    INDEX 01 03:05:29
  TRACK 179 AUDIO
    TITLE "2:cjc090_1734"
    INDEX 01 03:06:48
  TRACK 180 AUDIO
    TITLE "0:"
    INDEX 01 03:07:43
  TRACK 181 AUDIO
    TITLE "3:cjc090_1735"
    INDEX 01 03:07:61
  TRACK 182 AUDIO
    TITLE "2:cjc090_1736"
    INDEX 01 03:08:60
  TRACK 183 AUDIO
    TITLE "0:"
    INDEX 01 03:09:74
  TRACK 184 AUDIO
    TITLE "3:cjc090_1737"
    INDEX 01 03:10:18
  TRACK 185 AUDIO
    TITLE "2:cjc090_1738"
    INDEX 01 03:11:29
  TRACK 186 AUDIO
    TITLE "0:"
    INDEX 01 03:13:26
  TRACK 187 AUDIO
    TITLE "3:cjc090_1739"
    INDEX 01 03:13:44
  TRACK 188 AUDIO
    TITLE "2:cjc090_1740"
    INDEX 01 03:15:10
  TRACK 189 AUDIO
    TITLE "0:"
    INDEX 01 03:17:20
  TRACK 190 AUDIO
    TITLE "3:cjc090_1741"
    INDEX 01 03:17:38
  TRACK 191 AUDIO
    TITLE "2:cjc090_1742"
    INDEX 01 03:18:37
  TRACK 192 AUDIO
    TITLE "0:"
    INDEX 01 03:20:44
  TRACK 193 AUDIO
    TITLE "3:cjc090_1743"
    INDEX 01 03:20:62
  TRACK 194 AUDIO
    TITLE "2:cjc090_1744"
    INDEX 01 03:21:67
  TRACK 195 AUDIO
    TITLE "0:"
    INDEX 01 03:23:11
  TRACK 196 AUDIO
    TITLE "3:cjc090_1745"
    INDEX 01 03:23:29
  TRACK 197 AUDIO
    TITLE "2:cjc090_1746"
    INDEX 01 03:24:32
  TRACK 198 AUDIO
    TITLE "0:"
    INDEX 01 03:25:45
  TRACK 199 AUDIO
    TITLE "3:cjc090_1747"
    INDEX 01 03:25:63
  TRACK 200 AUDIO
    TITLE "2:cjc090_1748"
    INDEX 01 03:26:72
  TRACK 201 AUDIO
    TITLE "0:"
    INDEX 01 03:29:16
  TRACK 202 AUDIO
    TITLE "3:cjc090_1749"
    INDEX 01 03:29:35
  TRACK 203 AUDIO
    TITLE "2:cjc090_1750"
    INDEX 01 03:30:41
  TRACK 204 AUDIO
    TITLE "0:"
    INDEX 01 03:32:32
  TRACK 205 AUDIO
    TITLE "3:cjc090_1751"
    INDEX 01 03:32:49
  TRACK 206 AUDIO
    TITLE "2:cjc090_1752"
    INDEX 01 03:33:47
  TRACK 207 AUDIO
    TITLE "0:"
    INDEX 01 03:34:62
  TRACK 208 AUDIO
    TITLE "3:cjc090_1753"
    INDEX 01 03:35:04
  TRACK 209 AUDIO
    TITLE "2:cjc090_1754"
    INDEX 01 03:36:16
  TRACK 210 AUDIO
    TITLE "0:"
    INDEX 01 03:37:35
  TRACK 211 AUDIO
    TITLE "3:cjc090_1755"
    INDEX 01 03:37:52
  TRACK 212 AUDIO
    TITLE "2:cjc090_1756"
    INDEX 01 03:38:50
  TRACK 213 AUDIO
    TITLE "0:"
    INDEX 01 03:39:67
  TRACK 214 AUDIO
    TITLE "3:cjc090_1757"
    INDEX 01 03:40:10
  TRACK 215 AUDIO
    TITLE "2:cjc090_1758"
    INDEX 01 03:41:09
  TRACK 216 AUDIO
    TITLE "0:"
    INDEX 01 03:42:55
  TRACK 217 AUDIO
    TITLE "3:cjc090_1759"
    INDEX 01 03:43:00
  TRACK 218 AUDIO
    TITLE "2:cjc090_1760"
    INDEX 01 03:44:03
  TRACK 219 AUDIO
    TITLE "0:"
    INDEX 01 03:46:08
  TRACK 220 AUDIO
    TITLE "3:cjc090_1761"
    INDEX 01 03:46:26
  TRACK 221 AUDIO
    TITLE "2:cjc090_1762"
    INDEX 01 03:47:37
  TRACK 222 AUDIO
    TITLE "0:"
    INDEX 01 03:51:02
  TRACK 223 AUDIO
    TITLE "3:cjc090_1763"
    INDEX 01 03:51:21
  TRACK 224 AUDIO
    TITLE "2:cjc090_1764"
    INDEX 01 03:52:30
  TRACK 225 AUDIO
    TITLE "0:"
    INDEX 01 03:53:63
  TRACK 226 AUDIO
    TITLE "3:cjc090_1765"
    INDEX 01 03:54:08
  TRACK 227 AUDIO
    TITLE "2:cjc090_1766"
    INDEX 01 03:55:07
  TRACK 228 AUDIO
    TITLE "0:"
    INDEX 01 03:56:71
  TRACK 229 AUDIO
    TITLE "3:cjc090_1767"
    INDEX 01 03:57:14
  TRACK 230 AUDIO
    TITLE "2:cjc090_1768"
    INDEX 01 03:58:19
  TRACK 231 AUDIO
    TITLE "0:"
    INDEX 01 03:59:70
  TRACK 232 AUDIO
    TITLE "3:cjc090_1769"
    INDEX 01 04:00:12
  TRACK 233 AUDIO
    TITLE "2:cjc090_1770"
    INDEX 01 04:01:23
  TRACK 234 AUDIO
    TITLE "0:"
    INDEX 01 04:03:46
  TRACK 235 AUDIO
    TITLE "3:cjc090_1771"
    INDEX 01 04:03:65
  TRACK 236 AUDIO
    TITLE "2:cjc090_1772"
    INDEX 01 04:05:39
  TRACK 237 AUDIO
    TITLE "0:"
    INDEX 01 04:07:28
  TRACK 238 AUDIO
    TITLE "3:cjc090_1773"
    INDEX 01 04:07:48
  TRACK 239 AUDIO
    TITLE "2:cjc090_1774"
    INDEX 01 04:08:72
  TRACK 240 AUDIO
    TITLE "0:"
    INDEX 01 04:10:07
  TRACK 241 AUDIO
    TITLE "3:cjc090_1775"
    INDEX 01 04:10:26
  TRACK 242 AUDIO
    TITLE "2:cjc090_1776"
    INDEX 01 04:11:55
  TRACK 243 AUDIO
    TITLE "0:"
    INDEX 01 04:12:72
  TRACK 244 AUDIO
    TITLE "3:cjc090_1777"
    INDEX 01 04:13:17
  TRACK 245 AUDIO
    TITLE "2:cjc090_1778"
    INDEX 01 04:14:24
  TRACK 246 AUDIO
    TITLE "0:"
    INDEX 01 04:15:35
  TRACK 247 AUDIO
    TITLE "3:cjc090_1779"
    INDEX 01 04:15:55
  TRACK 248 AUDIO
    TITLE "2:cjc090_1780"
    INDEX 01 04:16:72
  TRACK 249 AUDIO
    TITLE "0:"
    INDEX 01 04:18:67
  TRACK 250 AUDIO
    TITLE "3:cjc090_1781"
    INDEX 01 04:19:10
  TRACK 251 AUDIO
    TITLE "2:cjc090_1782"
    INDEX 01 04:20:09
  TRACK 252 AUDIO
    TITLE "0:"
    INDEX 01 04:21:26
  TRACK 253 AUDIO
    TITLE "3:cjc090_1783"
    INDEX 01 04:21:44
  TRACK 254 AUDIO
    TITLE "2:cjc090_1784"
    INDEX 01 04:22:61
  TRACK 255 AUDIO
    TITLE "0:"
    INDEX 01 04:23:70
  TRACK 256 AUDIO
    TITLE "3:cjc090_1785"
    INDEX 01 04:24:17
  TRACK 257 AUDIO
    TITLE "2:cjc090_1786"
    INDEX 01 04:25:38
  TRACK 258 AUDIO
    TITLE "0:"
    INDEX 01 04:26:66
  TRACK 259 AUDIO
    TITLE "3:cjc090_1787"
    INDEX 01 04:27:09
  TRACK 260 AUDIO
    TITLE "2:cjc090_1788"
    INDEX 01 04:28:34
  TRACK 261 AUDIO
    TITLE "0:"
    INDEX 01 04:29:73
  TRACK 262 AUDIO
    TITLE "3:cjc090_1789"
    INDEX 01 04:30:17
  TRACK 263 AUDIO
    TITLE "2:cjc090_1790"
    INDEX 01 04:31:54
  TRACK 264 AUDIO
    TITLE "0:"
    INDEX 01 04:32:59
  TRACK 265 AUDIO
    TITLE "3:cjc090_1791"
    INDEX 01 04:33:04
  TRACK 266 AUDIO
    TITLE "2:cjc090_1792"
    INDEX 01 04:34:19
  TRACK 267 AUDIO
    TITLE "0:"
    INDEX 01 04:35:52
  TRACK 268 AUDIO
    TITLE "3:cjc090_1793"
    INDEX 01 04:35:69
  TRACK 269 AUDIO
    TITLE "2:cjc090_1794"
    INDEX 01 04:37:11
  TRACK 270 AUDIO
    TITLE "0:"
    INDEX 01 04:38:38
  TRACK 271 AUDIO
    TITLE "3:cjc090_1795"
    INDEX 01 04:38:58
  TRACK 272 AUDIO
    TITLE "2:cjc090_1796"
    INDEX 01 04:39:65
  TRACK 273 AUDIO
    TITLE "0:"
    INDEX 01 04:41:58
  TRACK 274 AUDIO
    TITLE "3:cjc090_1797"
    INDEX 01 04:42:01
  TRACK 275 AUDIO
    TITLE "2:cjc090_1798"
    INDEX 01 04:43:14
  TRACK 276 AUDIO
    TITLE "0:"
    INDEX 01 04:44:47
  TRACK 277 AUDIO
    TITLE "3:cjc090_1799"
    INDEX 01 04:44:64
  TRACK 278 AUDIO
    TITLE "2:cjc090_1800"
    INDEX 01 04:45:72
  TRACK 279 AUDIO
    TITLE "0:"
    INDEX 01 04:47:49
  TRACK 280 AUDIO
    TITLE "3:cjc090_1801"
    INDEX 01 04:47:67
  TRACK 281 AUDIO
    TITLE "2:cjc090_1802"
    INDEX 01 04:48:70
  TRACK 282 AUDIO
    TITLE "0:"
    INDEX 01 04:50:22
  TRACK 283 AUDIO
    TITLE "3:cjc090_1803"
    INDEX 01 04:50:40
  TRACK 284 AUDIO
    TITLE "2:cjc090_1804"
    INDEX 01 04:51:37
  TRACK 285 AUDIO
    TITLE "0:"
    INDEX 01 04:53:05
  TRACK 286 AUDIO
    TITLE "3:cjc090_1805"
    INDEX 01 04:53:22
  TRACK 287 AUDIO
    TITLE "2:cjc090_1806"
    INDEX 01 04:54:28
  TRACK 288 AUDIO
    TITLE "0:"
    INDEX 01 04:56:11
  TRACK 289 AUDIO
    TITLE "3:cjc090_1807"
    INDEX 01 04:56:30
  TRACK 290 AUDIO
    TITLE "2:cjc090_1808"
    INDEX 01 04:57:45
  TRACK 291 AUDIO
    TITLE "0:"
    INDEX 01 04:58:70
  TRACK 292 AUDIO
    TITLE "3:cjc090_1809"
    INDEX 01 04:59:15
  TRACK 293 AUDIO
    TITLE "2:cjc090_1810"
    INDEX 01 05:00:56
  TRACK 294 AUDIO
    TITLE "0:"
    INDEX 01 05:01:73
  TRACK 295 AUDIO
    TITLE "3:cjc090_1811"
    INDEX 01 05:02:15
  TRACK 296 AUDIO
    TITLE "2:cjc090_1812"
    INDEX 01 05:03:19
  TRACK 297 AUDIO
    TITLE "0:"
    INDEX 01 05:05:08
  TRACK 298 AUDIO
    TITLE "3:cjc090_1813"
    INDEX 01 05:05:25
  TRACK 299 AUDIO
    TITLE "2:cjc090_1814"
    INDEX 01 05:06:46
  TRACK 300 AUDIO
    TITLE "0:"
    INDEX 01 05:07:63
  TRACK 301 AUDIO
    TITLE "3:cjc090_1815"
    INDEX 01 05:08:08
  TRACK 302 AUDIO
    TITLE "2:cjc090_1816"
    INDEX 01 05:09:09
  TRACK 303 AUDIO
    TITLE "0:"
    INDEX 01 05:10:19
  TRACK 304 AUDIO
    TITLE "3:cjc090_1817"
    INDEX 01 05:10:36
  TRACK 305 AUDIO
    TITLE "2:cjc090_1818"
    INDEX 01 05:12:00
  TRACK 306 AUDIO
    TITLE "0:"
    INDEX 01 05:14:13
  TRACK 307 AUDIO
    TITLE "3:cjc090_1819"
    INDEX 01 05:14:32
  TRACK 308 AUDIO
    TITLE "2:cjc090_1820"
    INDEX 01 05:16:33
  TRACK 309 AUDIO
    TITLE "0:"
    INDEX 01 05:18:55
  TRACK 310 AUDIO
    TITLE "3:cjc090_1821"
    INDEX 01 05:19:00
  TRACK 311 AUDIO
    TITLE "2:cjc090_1822"
    INDEX 01 05:20:13
  TRACK 312 AUDIO
    TITLE "0:"
    INDEX 01 05:21:34
  TRACK 313 AUDIO
    TITLE "3:cjc090_1823"
    INDEX 01 05:21:56
  TRACK 314 AUDIO
    TITLE "2:cjc090_1824"
    INDEX 01 05:23:12
  TRACK 315 AUDIO
    TITLE "0:"
    INDEX 01 05:24:25
  TRACK 316 AUDIO
    TITLE "3:cjc090_1825"
    INDEX 01 05:24:44
  TRACK 317 AUDIO
    TITLE "2:cjc090_1826"
    INDEX 01 05:25:57
  TRACK 318 AUDIO
    TITLE "0:"
    INDEX 01 05:27:47
  TRACK 319 AUDIO
    TITLE "3:cjc090_1827"
    INDEX 01 05:27:64
  TRACK 320 AUDIO
    TITLE "2:cjc090_1828"
    INDEX 01 05:28:72
  TRACK 321 AUDIO
    TITLE "0:"
    INDEX 01 05:30:21
  TRACK 322 AUDIO
    TITLE "3:cjc090_1829"
    INDEX 01 05:30:41
  TRACK 323 AUDIO
    TITLE "2:cjc090_1830"
    INDEX 01 05:31:62
  TRACK 324 AUDIO
    TITLE "0:"
    INDEX 01 05:33:53
  TRACK 325 AUDIO
    TITLE "3:cjc090_1831"
    INDEX 01 05:33:73
  TRACK 326 AUDIO
    TITLE "2:cjc090_1832"
    INDEX 01 05:34:68
  TRACK 327 AUDIO
    TITLE "0:"
    INDEX 01 05:36:20
  TRACK 328 AUDIO
    TITLE "3:cjc090_1833"
    INDEX 01 05:36:38
  TRACK 329 AUDIO
    TITLE "2:cjc090_1834"
    INDEX 01 05:37:55
  TRACK 330 AUDIO
    TITLE "0:"
    INDEX 01 05:39:16
  TRACK 331 AUDIO
    TITLE "3:cjc090_1835"
    INDEX 01 05:39:34
  TRACK 332 AUDIO
    TITLE "2:cjc090_1836"
    INDEX 01 05:40:47
  TRACK 333 AUDIO
    TITLE "0:"
    INDEX 01 05:41:68
  TRACK 334 AUDIO
    TITLE "3:cjc090_1837"
    INDEX 01 05:42:13
  TRACK 335 AUDIO
    TITLE "2:cjc090_1838"
    INDEX 01 05:43:16
  TRACK 336 AUDIO
    TITLE "0:"
    INDEX 01 05:44:29
  TRACK 337 AUDIO
    TITLE "3:cjc090_1839"
    INDEX 01 05:44:47
  TRACK 338 AUDIO
    TITLE "2:cjc090_1840"
    INDEX 01 05:45:64
  TRACK 339 AUDIO
    TITLE "0:"
    INDEX 01 05:47:04
  TRACK 340 AUDIO
    TITLE "3:cjc090_1841"
    INDEX 01 05:47:24
  TRACK 341 AUDIO
    TITLE "2:cjc090_1842"
    INDEX 01 05:48:37
  TRACK 342 AUDIO
    TITLE "0:"
    INDEX 01 05:49:56
  TRACK 343 AUDIO
    TITLE "3:cjc090_1843"
    INDEX 01 05:49:74
  TRACK 344 AUDIO
    TITLE "2:cjc090_1844"
    INDEX 01 05:51:10
  TRACK 345 AUDIO
    TITLE "0:"
    INDEX 01 05:52:23
  TRACK 346 AUDIO
    TITLE "3:cjc090_1845"
    INDEX 01 05:52:43
  TRACK 347 AUDIO
    TITLE "2:cjc090_1846"
    INDEX 01 05:53:60
  TRACK 348 AUDIO
    TITLE "0:"
    INDEX 01 05:54:73
  TRACK 349 AUDIO
    TITLE "3:cjc090_1847"
    INDEX 01 05:55:17
  TRACK 350 AUDIO
    TITLE "2:cjc090_1848"
    INDEX 01 05:56:38
  TRACK 351 AUDIO
    TITLE "0:"
    INDEX 01 05:58:10
  TRACK 352 AUDIO
    TITLE "3:cjc090_1849"
    INDEX 01 05:58:30
  TRACK 353 AUDIO
    TITLE "2:cjc090_1850"
    INDEX 01 05:59:49
  TRACK 354 AUDIO
    TITLE "0:"
    INDEX 01 06:01:45
  TRACK 355 AUDIO
    TITLE "3:cjc090_1851"
    INDEX 01 06:01:63
  TRACK 356 AUDIO
    TITLE "2:cjc090_1852"
    INDEX 01 06:03:01
  TRACK 357 AUDIO
    TITLE "0:"
    INDEX 01 06:04:65
  TRACK 358 AUDIO
    TITLE "3:cjc090_1853"
    INDEX 01 06:05:10
  TRACK 359 AUDIO
    TITLE "2:cjc090_1854"
    INDEX 01 06:06:27
  TRACK 360 AUDIO
    TITLE "0:"
    INDEX 01 06:07:72
  TRACK 361 AUDIO
    TITLE "3:cjc090_1855"
    INDEX 01 06:08:14
  TRACK 362 AUDIO
    TITLE "2:cjc090_1856"
    INDEX 01 06:09:18
  TRACK 363 AUDIO
    TITLE "0:"
    INDEX 01 06:10:25
  TRACK 364 AUDIO
    TITLE "3:cjc090_1857"
    INDEX 01 06:10:44
  TRACK 365 AUDIO
    TITLE "2:cjc090_1858"
    INDEX 01 06:11:42
  TRACK 366 AUDIO
    TITLE "0:"
    INDEX 01 06:12:49
  TRACK 367 AUDIO
    TITLE "3:cjc090_1859"
    INDEX 01 06:12:69
  TRACK 368 AUDIO
    TITLE "2:cjc090_1860"
    INDEX 01 06:13:72
  TRACK 369 AUDIO
    TITLE "0:"
    INDEX 01 06:15:14
  TRACK 370 AUDIO
    TITLE "3:cjc090_1861"
    INDEX 01 06:15:34
  TRACK 371 AUDIO
    TITLE "2:cjc090_1862"
    INDEX 01 06:16:39
  TRACK 372 AUDIO
    TITLE "0:"
    INDEX 01 06:18:18
  TRACK 373 AUDIO
    TITLE "3:cjc090_1863"
    INDEX 01 06:18:38
  TRACK 374 AUDIO
    TITLE "2:cjc090_1864"
    INDEX 01 06:19:41
  TRACK 375 AUDIO
    TITLE "0:"
    INDEX 01 06:20:72
  TRACK 376 AUDIO
    TITLE "3:cjc090_1865"
    INDEX 01 06:21:15
  TRACK 377 AUDIO
    TITLE "2:cjc090_1866"
    INDEX 01 06:22:18
  TRACK 378 AUDIO
    TITLE "0:"
    INDEX 01 06:24:13
  TRACK 379 AUDIO
    TITLE "3:cjc090_1867"
    INDEX 01 06:24:31
  TRACK 380 AUDIO
    TITLE "2:cjc090_1868"
    INDEX 01 06:26:06
  TRACK 381 AUDIO
    TITLE "0:"
    INDEX 01 06:28:07
  TRACK 382 AUDIO
    TITLE "3:cjc090_1869"
    INDEX 01 06:28:27
  TRACK 383 AUDIO
    TITLE "2:cjc090_1870"
    INDEX 01 06:29:44
  TRACK 384 AUDIO
    TITLE "0:"
    INDEX 01 06:31:37
  TRACK 385 AUDIO
    TITLE "3:cjc090_1871"
    INDEX 01 06:31:56
  TRACK 386 AUDIO
    TITLE "2:cjc090_1872"
    INDEX 01 06:32:72
  TRACK 387 AUDIO
    TITLE "0:"
    INDEX 01 06:34:18
  TRACK 388 AUDIO
    TITLE "3:cjc090_1873"
    INDEX 01 06:34:37
  TRACK 389 AUDIO
    TITLE "2:cjc090_1874"
    INDEX 01 06:35:46
  TRACK 390 AUDIO
    TITLE "0:"
    INDEX 01 06:38:02
  TRACK 391 AUDIO
    TITLE "3:cjc090_1875"
    INDEX 01 06:38:19
  TRACK 392 AUDIO
    TITLE "2:cjc090_1876"
    INDEX 01 06:39:27
  TRACK 393 AUDIO
    TITLE "0:"
    INDEX 01 06:40:34
  TRACK 394 AUDIO
    TITLE "3:cjc090_1877"
    INDEX 01 06:40:55
  TRACK 395 AUDIO
    TITLE "2:cjc090_1878"
    INDEX 01 06:41:57
  TRACK 396 AUDIO
    TITLE "0:"
    INDEX 01 06:43:60
  TRACK 397 AUDIO
    TITLE "3:cjc090_1879"
    INDEX 01 06:44:02
  TRACK 398 AUDIO
    TITLE "2:cjc090_1880"
    INDEX 01 06:45:15
  TRACK 399 AUDIO
    TITLE "0:"
    INDEX 01 06:46:38
  TRACK 400 AUDIO
    TITLE "3:cjc090_1881"
    INDEX 01 06:46:56
  TRACK 401 AUDIO
    TITLE "2:cjc090_1882"
    INDEX 01 06:47:63
  TRACK 402 AUDIO
    TITLE "0:"
    INDEX 01 06:49:52
  TRACK 403 AUDIO
    TITLE "3:cjc090_1883"
    INDEX 01 06:49:72
  TRACK 404 AUDIO
    TITLE "2:cjc090_1884"
    INDEX 01 06:50:73
  TRACK 405 AUDIO
    TITLE "0:"
    INDEX 01 06:52:66
  TRACK 406 AUDIO
    TITLE "3:cjc090_1885"
    INDEX 01 06:53:11
  TRACK 407 AUDIO
    TITLE "2:cjc090_1886"
    INDEX 01 06:54:24
  TRACK 408 AUDIO
    TITLE "0:"
    INDEX 01 06:56:13
  TRACK 409 AUDIO
    TITLE "3:cjc090_1887"
    INDEX 01 06:56:35
  TRACK 410 AUDIO
    TITLE "2:cjc090_1888"
    INDEX 01 06:57:30
  TRACK 411 AUDIO
    TITLE "0:"
    INDEX 01 06:59:41
  TRACK 412 AUDIO
    TITLE "3:cjc090_1889"
    INDEX 01 06:59:63
  TRACK 413 AUDIO
    TITLE "2:cjc090_1890"
    INDEX 01 07:00:46
  TRACK 414 AUDIO
    TITLE "0:"
    INDEX 01 07:01:54
  TRACK 415 AUDIO
    TITLE "3:cjc090_1891"
    INDEX 01 07:01:73
  TRACK 416 AUDIO
    TITLE "2:cjc090_1892"
    INDEX 01 07:03:11
  TRACK 417 AUDIO
    TITLE "0:"
    INDEX 01 07:04:62
  TRACK 418 AUDIO
    TITLE "3:cjc090_1893"
    INDEX 01 07:05:04
  TRACK 419 AUDIO
    TITLE "2:cjc090_1894"
    INDEX 01 07:06:06
  TRACK 420 AUDIO
    TITLE "0:"
    INDEX 01 07:07:33
  TRACK 421 AUDIO
    TITLE "3:cjc090_1895"
    INDEX 01 07:07:50
  TRACK 422 AUDIO
    TITLE "2:cjc090_1896"
    INDEX 01 07:08:71
  TRACK 423 AUDIO
    TITLE "0:"
    INDEX 01 07:10:13
  TRACK 424 AUDIO
    TITLE "3:cjc090_1897"
    INDEX 01 07:10:31
  TRACK 425 AUDIO
    TITLE "2:cjc090_1898"
    INDEX 01 07:11:50
  TRACK 426 AUDIO
    TITLE "0:"
    INDEX 01 07:13:47
  TRACK 427 AUDIO
    TITLE "3:cjc090_1899"
    INDEX 01 07:13:67
  TRACK 428 AUDIO
    TITLE "2:cjc090_1900"
    INDEX 01 07:14:74
  TRACK 429 AUDIO
    TITLE "0:"
    INDEX 01 07:16:16
  TRACK 430 AUDIO
    TITLE "3:cjc090_1901"
    INDEX 01 07:16:36
  TRACK 431 AUDIO
    TITLE "2:cjc090_1902"
    INDEX 01 07:17:57
  TRACK 432 AUDIO
    TITLE "0:"
    INDEX 01 07:18:64
  TRACK 433 AUDIO
    TITLE "3:cjc090_1903"
    INDEX 01 07:19:10
  TRACK 434 AUDIO
    TITLE "2:cjc090_1904"
    INDEX 01 07:20:20
  TRACK 435 AUDIO
    TITLE "0:"
    INDEX 01 07:21:19
  TRACK 436 AUDIO
    TITLE "3:cjc090_1905"
    INDEX 01 07:21:37
  TRACK 437 AUDIO
    TITLE "2:cjc090_1906"
    INDEX 01 07:22:54
  TRACK 438 AUDIO
    TITLE "0:"
    INDEX 01 07:23:53
  TRACK 439 AUDIO
    TITLE "3:cjc090_1907"
    INDEX 01 07:23:73
  TRACK 440 AUDIO
    TITLE "2:cjc090_1908"
    INDEX 01 07:25:07
  TRACK 441 AUDIO
    TITLE "0:"
    INDEX 01 07:26:34
  TRACK 442 AUDIO
    TITLE "3:cjc090_1909"
    INDEX 01 07:26:52
  TRACK 443 AUDIO
    TITLE "2:cjc090_1910"
    INDEX 01 07:27:63
  TRACK 444 AUDIO
    TITLE "0:"
    INDEX 01 07:29:05
  TRACK 445 AUDIO
    TITLE "3:cjc090_1911"
    INDEX 01 07:29:24
  TRACK 446 AUDIO
    TITLE "2:cjc090_1912"
    INDEX 01 07:30:26
  TRACK 447 AUDIO
    TITLE "0:"
    INDEX 01 07:32:44
  TRACK 448 AUDIO
    TITLE "3:cjc090_1913"
    INDEX 01 07:32:60
  TRACK 449 AUDIO
    TITLE "2:cjc090_1914"
    INDEX 01 07:33:73
  TRACK 450 AUDIO
    TITLE "0:"
    INDEX 01 07:36:05
  TRACK 451 AUDIO
    TITLE "3:cjc090_1915"
    INDEX 01 07:36:23
  TRACK 452 AUDIO
    TITLE "2:cjc090_1916"
    INDEX 01 07:37:28
  TRACK 453 AUDIO
    TITLE "0:"
    INDEX 01 07:38:47
  TRACK 454 AUDIO
    TITLE "3:cjc090_1917"
    INDEX 01 07:38:65
  TRACK 455 AUDIO
    TITLE "2:cjc090_1918"
    INDEX 01 07:40:30
  TRACK 456 AUDIO
    TITLE "0:"
    INDEX 01 07:41:61
  TRACK 457 AUDIO
    TITLE "3:cjc090_1919"
    INDEX 01 07:42:06
  TRACK 458 AUDIO
    TITLE "2:cjc090_1920"
    INDEX 01 07:43:09
  TRACK 459 AUDIO
    TITLE "0:"
    INDEX 01 07:45:02
  TRACK 460 AUDIO
    TITLE "3:cjc090_1921"
    INDEX 01 07:45:21
  TRACK 461 AUDIO
    TITLE "2:cjc090_1922"
    INDEX 01 07:46:35
  TRACK 462 AUDIO
    TITLE "0:"
    INDEX 01 07:47:40
  TRACK 463 AUDIO
    TITLE "3:cjc090_1923"
    INDEX 01 07:47:58
  TRACK 464 AUDIO
    TITLE "2:cjc090_1924"
    INDEX 01 07:49:02
  TRACK 465 AUDIO
    TITLE "0:"
    INDEX 01 07:52:12
  TRACK 466 AUDIO
    TITLE "3:cjc090_1925"
    INDEX 01 07:52:31
  TRACK 467 AUDIO
    TITLE "2:cjc090_1926"
    INDEX 01 07:53:39
  TRACK 468 AUDIO
    TITLE "0:"
    INDEX 01 07:55:08
  TRACK 469 AUDIO
    TITLE "3:cjc090_1927"
    INDEX 01 07:55:30
  TRACK 470 AUDIO
    TITLE "2:cjc090_1928"
    INDEX 01 07:56:35
  TRACK 471 AUDIO
    TITLE "0:"
    INDEX 01 07:58:38
  TRACK 472 AUDIO
    TITLE "3:cjc090_1929"
    INDEX 01 07:58:54
  TRACK 473 AUDIO
    TITLE "2:cjc090_1930"
    INDEX 01 08:00:29
  TRACK 474 AUDIO
    TITLE "0:"
    INDEX 01 08:03:10
  TRACK 475 AUDIO
    TITLE "3:cjc090_1931"
    INDEX 01 08:03:27
  TRACK 476 AUDIO
    TITLE "2:cjc090_1932"
    INDEX 01 08:04:38
  TRACK 477 AUDIO
    TITLE "0:"
    INDEX 01 08:05:61
  TRACK 478 AUDIO
    TITLE "3:cjc090_1933"
    INDEX 01 08:06:06
  TRACK 479 AUDIO
    TITLE "2:cjc090_1934"
    INDEX 01 08:06:71
  TRACK 480 AUDIO
    TITLE "0:"
    INDEX 01 08:07:68
  TRACK 481 AUDIO
    TITLE "3:cjc090_1935"
    INDEX 01 08:08:11
  TRACK 482 AUDIO
    TITLE "2:cjc090_1936"
    INDEX 01 08:09:18
  TRACK 483 AUDIO
    TITLE "0:"
    INDEX 01 08:10:27
  TRACK 484 AUDIO
    TITLE "3:cjc090_1937"
    INDEX 01 08:10:47
  TRACK 485 AUDIO
    TITLE "2:cjc090_1938"
    INDEX 01 08:11:52
  TRACK 486 AUDIO
    TITLE "0:"
    INDEX 01 08:12:52
  TRACK 487 AUDIO
    TITLE "3:cjc090_1939"
    INDEX 01 08:12:71
  TRACK 488 AUDIO
    TITLE "2:cjc090_1940"
    INDEX 01 08:14:02
  TRACK 489 AUDIO
    TITLE "0:"
    INDEX 01 08:15:01
  TRACK 490 AUDIO
    TITLE "3:cjc090_1941"
    INDEX 01 08:15:23
  TRACK 491 AUDIO
    TITLE "2:cjc090_1942"
    INDEX 01 08:16:22
  TRACK 492 AUDIO
    TITLE "0:"
    INDEX 01 08:18:52
  TRACK 493 AUDIO
    TITLE "3:cjc090_1943"
    INDEX 01 08:18:70
  TRACK 494 AUDIO
    TITLE "2:cjc090_1944"
    INDEX 01 08:19:69
  TRACK 495 AUDIO
    TITLE "0:"
    INDEX 01 08:21:60
  TRACK 496 AUDIO
    TITLE "3:cjc090_1945"
    INDEX 01 08:22:03
  TRACK 497 AUDIO
    TITLE "2:cjc090_1946"
    INDEX 01 08:23:14
  TRACK 498 AUDIO
    TITLE "0:"
    INDEX 01 08:24:27
  TRACK 499 AUDIO
    TITLE "3:cjc090_1947"
    INDEX 01 08:24:45
  TRACK 500 AUDIO
    TITLE "2:cjc090_1948"
    INDEX 01 08:25:52
  TRACK 501 AUDIO
    TITLE "0:"
    INDEX 01 08:27:32
  TRACK 502 AUDIO
    TITLE "3:cjc090_1949"
    INDEX 01 08:27:49
  TRACK 503 AUDIO
    TITLE "2:cjc090_1950"
    INDEX 01 08:28:66
  TRACK 504 AUDIO
    TITLE "0:"
    INDEX 01 08:30:48
  TRACK 505 AUDIO
    TITLE "3:cjc090_1951"
    INDEX 01 08:30:71
  TRACK 506 AUDIO
    TITLE "2:cjc090_1952"
    INDEX 01 08:31:69
  TRACK 507 AUDIO
    TITLE "0:"
    INDEX 01 08:32:70
  TRACK 508 AUDIO
    TITLE "3:cjc090_1953"
    INDEX 01 08:33:15
  TRACK 509 AUDIO
    TITLE "2:cjc090_1954"
    INDEX 01 08:34:20
  TRACK 510 AUDIO
    TITLE "0:"
    INDEX 01 08:36:56
  TRACK 511 AUDIO
    TITLE "3:cjc090_1955"
    INDEX 01 08:36:74
  TRACK 512 AUDIO
    TITLE "2:cjc090_1956"
    INDEX 01 08:38:12
  TRACK 513 AUDIO
    TITLE "0:"
    INDEX 01 08:40:01
  TRACK 514 AUDIO
    TITLE "3:cjc090_1957"
    INDEX 01 08:40:21
  TRACK 515 AUDIO
    TITLE "2:cjc090_1958"
    INDEX 01 08:41:32
  TRACK 516 AUDIO
    TITLE "0:"
    INDEX 01 08:42:57
  TRACK 517 AUDIO
    TITLE "3:cjc090_1959"
    INDEX 01 08:42:74
  TRACK 518 AUDIO
    TITLE "2:cjc090_1960"
    INDEX 01 08:44:11
  TRACK 519 AUDIO
    TITLE "0:"
    INDEX 01 08:46:09
  TRACK 520 AUDIO
    TITLE "3:cjc090_1961"
    INDEX 01 08:46:29
  TRACK 521 AUDIO
    TITLE "2:cjc090_1962"
    INDEX 01 08:47:46
  TRACK 522 AUDIO
    TITLE "0:"
    INDEX 01 08:49:35
  TRACK 523 AUDIO
    TITLE "3:cjc090_1963"
    INDEX 01 08:49:55
  TRACK 524 AUDIO
    TITLE "2:cjc090_1964"
    INDEX 01 08:50:54
  TRACK 525 AUDIO
    TITLE "0:"
    INDEX 01 08:51:71
  TRACK 526 AUDIO
    TITLE "3:cjc090_1965"
    INDEX 01 08:52:16
  TRACK 527 AUDIO
    TITLE "2:cjc090_1966"
    INDEX 01 08:53:27
  TRACK 528 AUDIO
    TITLE "0:"
    INDEX 01 08:56:10
  TRACK 529 AUDIO
    TITLE "3:cjc090_1967"
    INDEX 01 08:56:29
  TRACK 530 AUDIO
    TITLE "2:cjc090_1968"
    INDEX 01 08:57:35
  TRACK 531 AUDIO
    TITLE "0:"
    INDEX 01 08:58:44
  TRACK 532 AUDIO
    TITLE "3:cjc090_1969"
    INDEX 01 08:58:62
  TRACK 533 AUDIO
    TITLE "2:cjc090_1970"
    INDEX 01 08:59:63
  TRACK 534 AUDIO
    TITLE "0:"
    INDEX 01 09:00:70
  TRACK 535 AUDIO
    TITLE "3:cjc090_1971"
    INDEX 01 09:01:15
  TRACK 536 AUDIO
    TITLE "2:cjc090_1972"
    INDEX 01 09:02:26
  TRACK 537 AUDIO
    TITLE "0:"
    INDEX 01 09:03:29
  TRACK 538 AUDIO
    TITLE "3:cjc090_1973"
    INDEX 01 09:03:49
  TRACK 539 AUDIO
    TITLE "2:cjc090_1974"
    INDEX 01 09:04:50
  TRACK 540 AUDIO
    TITLE "0:"
    INDEX 01 09:06:30
  TRACK 541 AUDIO
    TITLE "3:cjc090_1975"
    INDEX 01 09:06:47
  TRACK 542 AUDIO
    TITLE "2:cjc090_1976"
    INDEX 01 09:07:57
  TRACK 543 AUDIO
    TITLE "0:"
    INDEX 01 09:09:63
  TRACK 544 AUDIO
    TITLE "3:cjc090_1977"
    INDEX 01 09:10:06
  TRACK 545 AUDIO
    TITLE "2:cjc090_1978"
    INDEX 01 09:11:33
  TRACK 546 AUDIO
    TITLE "0:"
    INDEX 01 09:12:50
  TRACK 547 AUDIO
    TITLE "3:cjc090_1979"
    INDEX 01 09:12:68
  TRACK 548 AUDIO
    TITLE "2:cjc090_1980"
    INDEX 01 09:13:65
  TRACK 549 AUDIO
    TITLE "0:"
    INDEX 01 09:15:01
  TRACK 550 AUDIO
    TITLE "3:cjc090_1981"
    INDEX 01 09:15:21
  TRACK 551 AUDIO
    TITLE "2:cjc090_1982"
    INDEX 01 09:16:32
  TRACK 552 AUDIO
    TITLE "0:"
    INDEX 01 09:19:01
  TRACK 553 AUDIO
    TITLE "3:cjc090_1983"
    INDEX 01 09:19:21
  TRACK 554 AUDIO
    TITLE "2:cjc090_1984"
    INDEX 01 09:20:10
  TRACK 555 AUDIO
    TITLE "0:"
    INDEX 01 09:21:20
  TRACK 556 AUDIO
    TITLE "3:cjc090_1985"
    INDEX 01 09:21:39
  TRACK 557 AUDIO
    TITLE "2:cjc090_1986"
    INDEX 01 09:22:31
  TRACK 558 AUDIO
    TITLE "0:"
    INDEX 01 09:23:63
  TRACK 559 AUDIO
    TITLE "3:cjc090_1987"
    INDEX 01 09:24:06
  TRACK 560 AUDIO
    TITLE "2:cjc090_1988"
    INDEX 01 09:25:02
  TRACK 561 AUDIO
    TITLE "0:"
    INDEX 01 09:26:17
  TRACK 562 AUDIO
    TITLE "3:cjc090_1989"
    INDEX 01 09:26:34
  TRACK 563 AUDIO
    TITLE "2:cjc090_1990"
    INDEX 01 09:27:38
  TRACK 564 AUDIO
    TITLE "0:"
    INDEX 01 09:29:23
  TRACK 565 AUDIO
    TITLE "3:cjc090_1991"
    INDEX 01 09:29:43
  TRACK 566 AUDIO
    TITLE "2:cjc090_1992"
    INDEX 01 09:30:54
  TRACK 567 AUDIO
    TITLE "0:"
    INDEX 01 09:31:59
  TRACK 568 AUDIO
    TITLE "3:cjc090_1993"
    INDEX 01 09:32:04
  TRACK 569 AUDIO
    TITLE "2:cjc090_1994"
    INDEX 01 09:33:05
  TRACK 570 AUDIO
    TITLE "0:"
    INDEX 01 09:34:14
  TRACK 571 AUDIO
    TITLE "3:cjc090_1995"
    INDEX 01 09:34:32
  TRACK 572 AUDIO
    TITLE "2:cjc090_1996"
    INDEX 01 09:35:59
  TRACK 573 AUDIO
    TITLE "0:"
    INDEX 01 09:37:38
  TRACK 574 AUDIO
    TITLE "3:cjc090_1997"
    INDEX 01 09:37:58
  TRACK 575 AUDIO
    TITLE "2:cjc090_1998"
    INDEX 01 09:38:69
  TRACK 576 AUDIO
    TITLE "0:"
    INDEX 01 09:40:05
  TRACK 577 AUDIO
    TITLE "3:cjc090_1999"
    INDEX 01 09:40:23
  TRACK 578 AUDIO
    TITLE "2:cjc090_2000"
    INDEX 01 09:41:28
  TRACK 579 AUDIO
    TITLE "0:"
    INDEX 01 09:43:19
  TRACK 580 AUDIO
    TITLE "3:cjc090_2001"
    INDEX 01 09:43:39
  TRACK 581 AUDIO
    TITLE "2:cjc090_2002"
    INDEX 01 09:44:68
  TRACK 582 AUDIO
    TITLE "0:"
    INDEX 01 09:47:35
  TRACK 583 AUDIO
    TITLE "3:cjc090_2003"
    INDEX 01 09:47:54
  TRACK 584 AUDIO
    TITLE "2:cjc090_2004"
    INDEX 01 09:48:65
  TRACK 585 AUDIO
    TITLE "0:"
    INDEX 01 09:49:73
  TRACK 586 AUDIO
    TITLE "3:cjc090_2005"
    INDEX 01 09:50:17
  TRACK 587 AUDIO
    TITLE "2:cjc090_2006"
    INDEX 01 09:51:32
  TRACK 588 AUDIO
    TITLE "0:"
    INDEX 01 09:52:34
